<?xml version="1.0" encoding="UTF-8"?>
<svg xmlns="http://www.w3.org/2000/svg" xmlns:xlink="http://www.w3.org/1999/xlink" width="40pt" height="40pt" viewBox="0 0 40 40" version="1.1">
<g id="surface7418275">
<path style=" stroke:none;fill-rule:nonzero;fill:rgb(100%,100%,100%);fill-opacity:1;" d="M 23.5 20 C 23.5 21.933594 21.933594 23.5 20 23.5 C 18.066406 23.5 16.5 21.933594 16.5 20 C 16.5 18.066406 18.066406 16.5 20 16.5 C 21.933594 16.5 23.5 18.066406 23.5 20 Z M 23.5 20 "/>
<path style=" stroke:none;fill-rule:nonzero;fill:rgb(100%,100%,100%);fill-opacity:1;" d="M 20 24 C 17.792969 24 16 22.207031 16 20 C 16 17.792969 17.792969 16 20 16 C 22.207031 16 24 17.792969 24 20 C 24 22.207031 22.207031 24 20 24 Z M 20 17 C 18.347656 17 17 18.347656 17 20 C 17 21.652344 18.347656 23 20 23 C 21.652344 23 23 21.652344 23 20 C 23 18.347656 21.652344 17 20 17 Z M 20 17 "/>
<path style=" stroke:none;fill-rule:nonzero;fill:rgb(100%,100%,100%);fill-opacity:1;" d="M 39.5 20 C 39.5 17.203125 36.589844 14.769531 32.007812 13.214844 C 32.585938 10.542969 32.664062 8.15625 32.175781 6.332031 C 31.765625 4.808594 30.992188 3.714844 29.878906 3.078125 C 29.207031 2.695312 28.441406 2.503906 27.597656 2.503906 C 25.390625 2.503906 22.707031 3.902344 20.003906 6.292969 C 17.296875 3.902344 14.609375 2.5 12.398438 2.5 C 11.558594 2.5 10.792969 2.695312 10.121094 3.078125 C 9.007812 3.714844 8.230469 4.808594 7.824219 6.332031 C 7.335938 8.160156 7.414062 10.542969 7.988281 13.214844 C 3.410156 14.769531 0.5 17.203125 0.5 20 C 0.5 22.796875 3.410156 25.230469 7.992188 26.785156 C 7.414062 29.457031 7.335938 31.839844 7.824219 33.664062 C 8.234375 35.191406 9.007812 36.285156 10.121094 36.921875 C 10.792969 37.304688 11.5625 37.5 12.402344 37.5 C 14.609375 37.5 17.296875 36.097656 20 33.707031 C 22.703125 36.097656 25.390625 37.496094 27.597656 37.496094 C 28.441406 37.496094 29.207031 37.304688 29.878906 36.921875 C 30.992188 36.285156 31.765625 35.1875 32.171875 33.667969 C 32.660156 31.839844 32.582031 29.457031 32.007812 26.785156 C 36.585938 25.234375 39.5 22.796875 39.5 20 Z M 28.886719 4.816406 C 29.523438 5.179688 29.976562 5.863281 30.242188 6.851562 C 30.644531 8.347656 30.5625 10.359375 30.085938 12.640625 C 28.488281 12.222656 26.742188 11.90625 24.875 11.703125 C 23.765625 10.199219 22.605469 8.847656 21.4375 7.660156 C 23.832031 5.574219 26.035156 4.503906 27.597656 4.503906 C 28.089844 4.503906 28.523438 4.609375 28.886719 4.816406 Z M 25.785156 23.285156 C 25.132812 24.402344 24.460938 25.4375 23.78125 26.40625 C 22.574219 26.511719 21.3125 26.566406 20 26.566406 C 18.683594 26.566406 17.421875 26.511719 16.214844 26.40625 C 15.535156 25.4375 14.863281 24.402344 14.210938 23.285156 C 13.574219 22.195312 13 21.097656 12.480469 20 C 13 18.90625 13.574219 17.804688 14.214844 16.714844 C 14.867188 15.597656 15.539062 14.5625 16.21875 13.59375 C 17.421875 13.488281 18.683594 13.429688 20 13.429688 C 21.316406 13.429688 22.578125 13.488281 23.78125 13.59375 C 24.460938 14.5625 25.132812 15.59375 25.785156 16.710938 C 26.421875 17.800781 26.996094 18.902344 27.515625 20 C 26.996094 21.097656 26.421875 22.195312 25.785156 23.285156 Z M 28.558594 22.390625 C 28.96875 23.429688 29.3125 24.445312 29.597656 25.425781 C 28.609375 25.683594 27.542969 25.90625 26.40625 26.082031 C 26.78125 25.5 27.152344 24.90625 27.511719 24.296875 C 27.882812 23.664062 28.226562 23.027344 28.558594 22.390625 Z M 20 30.984375 C 19.269531 30.246094 18.53125 29.425781 17.796875 28.511719 C 18.519531 28.546875 19.253906 28.566406 20 28.566406 C 20.746094 28.566406 21.480469 28.546875 22.203125 28.511719 C 21.464844 29.425781 20.730469 30.246094 20 30.984375 Z M 13.59375 26.082031 C 12.457031 25.90625 11.390625 25.683594 10.398438 25.425781 C 10.683594 24.445312 11.03125 23.429688 11.441406 22.394531 C 11.773438 23.027344 12.117188 23.664062 12.484375 24.296875 C 12.84375 24.90625 13.214844 25.5 13.59375 26.082031 Z M 11.441406 17.605469 C 11.03125 16.570312 10.683594 15.554688 10.398438 14.574219 C 11.390625 14.316406 12.457031 14.09375 13.59375 13.917969 C 13.21875 14.5 12.84375 15.09375 12.488281 15.703125 C 12.117188 16.335938 11.773438 16.972656 11.441406 17.605469 Z M 20 9.019531 C 20.730469 9.753906 21.46875 10.574219 22.203125 11.488281 C 21.480469 11.453125 20.746094 11.433594 20 11.433594 C 19.253906 11.433594 18.519531 11.453125 17.796875 11.488281 C 18.535156 10.574219 19.273438 9.753906 20 9.019531 Z M 27.511719 15.703125 C 27.152344 15.089844 26.78125 14.5 26.40625 13.917969 C 27.542969 14.09375 28.609375 14.3125 29.597656 14.570312 C 29.3125 15.554688 28.96875 16.570312 28.558594 17.609375 C 28.226562 16.972656 27.882812 16.335938 27.511719 15.703125 Z M 9.757812 6.851562 C 10.023438 5.863281 10.476562 5.175781 11.113281 4.8125 C 11.476562 4.605469 11.910156 4.5 12.398438 4.5 C 13.96875 4.5 16.167969 5.570312 18.566406 7.660156 C 17.394531 8.847656 16.234375 10.199219 15.121094 11.703125 C 13.257812 11.90625 11.511719 12.226562 9.914062 12.640625 C 9.433594 10.359375 9.355469 8.347656 9.757812 6.851562 Z M 2.5 20 C 2.5 18.269531 4.730469 16.433594 8.484375 15.144531 C 8.933594 16.707031 9.539062 18.34375 10.28125 20 C 9.539062 21.65625 8.933594 23.292969 8.484375 24.855469 C 4.730469 23.566406 2.5 21.730469 2.5 20 Z M 12.402344 35.5 C 11.910156 35.5 11.476562 35.394531 11.113281 35.1875 C 10.476562 34.824219 10.019531 34.140625 9.757812 33.148438 C 9.355469 31.652344 9.433594 29.640625 9.914062 27.359375 C 11.511719 27.777344 13.257812 28.09375 15.121094 28.296875 C 16.234375 29.800781 17.394531 31.152344 18.566406 32.339844 C 16.167969 34.429688 13.96875 35.5 12.402344 35.5 Z M 30.242188 33.148438 C 29.976562 34.136719 29.519531 34.820312 28.886719 35.183594 C 28.523438 35.390625 28.089844 35.496094 27.597656 35.496094 C 26.03125 35.496094 23.832031 34.425781 21.433594 32.339844 C 22.605469 31.152344 23.765625 29.800781 24.875 28.296875 C 26.738281 28.09375 28.484375 27.777344 30.082031 27.359375 C 30.5625 29.640625 30.640625 31.652344 30.242188 33.148438 Z M 31.515625 24.859375 C 31.0625 23.292969 30.460938 21.660156 29.71875 20 C 30.460938 18.339844 31.0625 16.707031 31.515625 15.140625 C 35.269531 16.433594 37.5 18.269531 37.5 20 C 37.5 21.730469 35.269531 23.566406 31.515625 24.859375 Z M 31.515625 24.859375 "/>
<path style=" stroke:none;fill-rule:nonzero;fill:rgb(100%,100%,100%);fill-opacity:1;" d="M 12.402344 38 C 11.472656 38 10.621094 37.785156 9.875 37.359375 C 8.636719 36.648438 7.785156 35.453125 7.34375 33.796875 C 6.871094 32.03125 6.894531 29.730469 7.410156 27.113281 C 2.695312 25.421875 0 22.84375 0 20 C 0 17.15625 2.695312 14.578125 7.410156 12.886719 C 6.894531 10.269531 6.871094 7.964844 7.34375 6.203125 C 7.785156 4.546875 8.636719 3.351562 9.871094 2.644531 C 12.394531 1.203125 16.050781 2.25 20 5.632812 C 23.949219 2.253906 27.605469 1.210938 30.125 2.644531 C 31.359375 3.351562 32.214844 4.546875 32.65625 6.203125 C 33.128906 7.964844 33.101562 10.269531 32.585938 12.886719 C 37.304688 14.578125 40 17.15625 40 20 C 40 22.84375 37.304688 25.421875 32.585938 27.113281 C 33.105469 29.730469 33.128906 32.035156 32.65625 33.796875 C 32.214844 35.453125 31.363281 36.648438 30.128906 37.355469 C 27.605469 38.792969 23.945312 37.746094 20 34.371094 C 17.222656 36.746094 14.605469 38 12.402344 38 Z M 12.398438 3 C 11.648438 3 10.964844 3.171875 10.367188 3.511719 C 9.371094 4.082031 8.679688 5.074219 8.308594 6.460938 C 7.851562 8.167969 7.910156 10.46875 8.480469 13.109375 L 8.574219 13.542969 L 8.152344 13.6875 C 3.605469 15.230469 1 17.53125 1 20 C 1 22.46875 3.605469 24.769531 8.152344 26.3125 L 8.574219 26.457031 L 8.480469 26.894531 C 7.910156 29.535156 7.851562 31.832031 8.308594 33.539062 C 8.679688 34.929688 9.371094 35.921875 10.371094 36.492188 C 10.964844 36.828125 11.648438 37 12.402344 37 C 14.414062 37 16.992188 35.699219 19.667969 33.332031 L 20 33.039062 L 20.332031 33.332031 C 23.003906 35.695312 25.585938 36.996094 27.597656 36.996094 C 28.351562 36.996094 29.035156 36.824219 29.632812 36.484375 C 30.625 35.917969 31.320312 34.925781 31.691406 33.539062 C 32.148438 31.832031 32.089844 29.535156 31.519531 26.894531 L 31.425781 26.457031 L 31.847656 26.3125 C 36.394531 24.769531 39 22.46875 39 20 C 39 17.53125 36.394531 15.230469 31.847656 13.6875 L 31.425781 13.542969 L 31.519531 13.105469 C 32.089844 10.464844 32.148438 8.167969 31.691406 6.460938 C 31.320312 5.070312 30.625 4.082031 29.628906 3.511719 C 29.035156 3.175781 28.351562 3.003906 27.597656 3.003906 C 25.589844 3.003906 23.007812 4.304688 20.332031 6.667969 L 20 6.960938 L 19.671875 6.667969 C 16.992188 4.304688 14.414062 3 12.398438 3 Z M 12.402344 36 C 11.824219 36 11.308594 35.871094 10.867188 35.621094 C 10.109375 35.1875 9.574219 34.402344 9.273438 33.277344 C 8.863281 31.753906 8.917969 29.667969 9.425781 27.257812 L 9.53125 26.742188 L 10.039062 26.875 C 11.632812 27.289062 13.355469 27.601562 15.175781 27.800781 L 15.390625 27.824219 L 15.523438 28 C 16.597656 29.449219 17.738281 30.792969 18.921875 31.988281 L 19.292969 32.367188 L 18.894531 32.71875 C 16.464844 34.835938 14.15625 36 12.402344 36 Z M 10.304688 27.972656 C 9.835938 30.011719 9.820312 31.75 10.238281 33.019531 C 10.519531 33.859375 10.84375 34.457031 11.359375 34.753906 C 12.65625 35.492188 15.175781 34.515625 17.835938 32.304688 C 16.800781 31.226562 15.800781 30.039062 14.851562 28.769531 C 13.257812 28.589844 11.730469 28.320312 10.304688 27.972656 Z M 27.597656 35.996094 C 25.84375 35.996094 23.535156 34.832031 21.109375 32.71875 L 20.707031 32.367188 L 21.082031 31.988281 C 22.265625 30.785156 23.40625 29.445312 24.476562 28 L 24.605469 27.824219 L 24.824219 27.800781 C 26.640625 27.601562 28.371094 27.289062 29.960938 26.875 L 30.46875 26.742188 L 30.574219 27.257812 C 31.082031 29.671875 31.136719 31.753906 30.726562 33.277344 C 30.425781 34.398438 29.890625 35.1875 29.136719 35.617188 C 28.691406 35.871094 28.175781 35.996094 27.597656 35.996094 Z M 22.164062 32.304688 C 24.824219 34.511719 27.335938 35.488281 28.640625 34.75 C 29.152344 34.457031 29.480469 33.859375 29.757812 33.019531 C 30.179688 31.75 30.164062 30.011719 29.695312 27.972656 C 28.269531 28.320312 26.742188 28.589844 25.148438 28.769531 C 24.203125 30.035156 23.203125 31.222656 22.164062 32.304688 Z M 20 31.695312 L 19.644531 31.335938 C 18.871094 30.554688 18.117188 29.710938 17.40625 28.828125 L 16.707031 27.960938 L 17.820312 28.011719 C 19.25 28.082031 20.75 28.082031 22.179688 28.011719 L 23.289062 27.960938 L 22.59375 28.824219 C 21.882812 29.703125 21.132812 30.550781 20.355469 31.332031 Z M 18.898438 29.054688 C 19.257812 29.472656 19.625 29.875 20 30.265625 C 20.375 29.875 20.742188 29.46875 21.101562 29.054688 C 20.371094 29.074219 19.628906 29.074219 18.898438 29.054688 Z M 20 27.066406 C 18.714844 27.066406 17.429688 27.011719 16.171875 26.902344 L 15.941406 26.882812 L 15.808594 26.691406 C 15.085938 25.664062 14.40625 24.605469 13.78125 23.539062 C 13.164062 22.476562 12.574219 21.359375 12.027344 20.214844 L 11.925781 20 L 12.027344 19.785156 C 12.574219 18.640625 13.164062 17.519531 13.78125 16.460938 C 14.410156 15.382812 15.074219 14.351562 15.808594 13.304688 L 15.941406 13.117188 L 16.175781 13.097656 C 18.683594 12.878906 21.316406 12.878906 23.824219 13.097656 L 24.054688 13.117188 L 24.191406 13.308594 C 24.925781 14.355469 25.589844 15.390625 26.214844 16.460938 C 26.839844 17.53125 27.429688 18.648438 27.96875 19.785156 L 28.070312 20 L 27.96875 20.214844 C 27.429688 21.351562 26.839844 22.46875 26.214844 23.539062 C 25.589844 24.613281 24.925781 25.644531 24.191406 26.695312 L 24.054688 26.886719 L 23.824219 26.90625 C 22.570312 27.011719 21.285156 27.066406 20 27.066406 Z M 16.492188 25.929688 C 18.800781 26.113281 21.199219 26.113281 23.507812 25.929688 C 24.171875 24.96875 24.777344 24.019531 25.351562 23.035156 C 25.925781 22.058594 26.464844 21.039062 26.964844 20 C 26.464844 18.960938 25.925781 17.941406 25.351562 16.964844 C 24.777344 15.980469 24.171875 15.03125 23.507812 14.070312 C 21.199219 13.886719 18.796875 13.886719 16.492188 14.070312 C 15.828125 15.03125 15.222656 15.976562 14.644531 16.964844 C 14.078125 17.933594 13.535156 18.953125 13.035156 20 C 13.535156 21.046875 14.078125 22.066406 14.644531 23.035156 C 15.214844 24.011719 15.835938 24.980469 16.492188 25.929688 Z M 25.378906 26.75 L 25.984375 25.8125 C 26.355469 25.234375 26.722656 24.648438 27.078125 24.042969 C 27.445312 23.417969 27.785156 22.789062 28.113281 22.160156 L 28.621094 21.191406 L 29.023438 22.210938 C 29.425781 23.230469 29.78125 24.269531 30.078125 25.289062 L 30.222656 25.785156 L 29.726562 25.914062 C 28.707031 26.175781 27.617188 26.402344 26.480469 26.578125 Z M 28.480469 23.601562 C 28.304688 23.914062 28.125 24.234375 27.941406 24.550781 C 27.773438 24.835938 27.601562 25.121094 27.429688 25.398438 C 27.957031 25.300781 28.472656 25.191406 28.96875 25.070312 C 28.820312 24.582031 28.65625 24.089844 28.480469 23.601562 Z M 14.621094 26.75 L 13.515625 26.578125 C 12.378906 26.398438 11.289062 26.175781 10.273438 25.910156 L 9.777344 25.78125 L 9.921875 25.289062 C 10.214844 24.273438 10.570312 23.238281 10.976562 22.210938 L 11.378906 21.191406 L 11.886719 22.164062 C 12.210938 22.789062 12.554688 23.417969 12.917969 24.046875 C 13.273438 24.648438 13.640625 25.234375 14.015625 25.8125 Z M 11.027344 25.070312 C 11.523438 25.1875 12.039062 25.296875 12.566406 25.398438 C 12.394531 25.117188 12.222656 24.835938 12.054688 24.546875 C 11.867188 24.234375 11.691406 23.917969 11.519531 23.601562 C 11.34375 24.09375 11.179688 24.582031 11.027344 25.070312 Z M 31.179688 25.503906 L 31.035156 24.996094 C 30.589844 23.449219 29.992188 21.835938 29.261719 20.203125 L 29.171875 20 L 29.261719 19.796875 C 29.992188 18.164062 30.589844 16.554688 31.035156 15.003906 L 31.179688 14.5 L 31.679688 14.671875 C 35.636719 16.03125 38 18.023438 38 20 C 38 21.976562 35.636719 23.96875 31.679688 25.332031 Z M 30.265625 20 C 30.894531 21.425781 31.425781 22.839844 31.84375 24.210938 C 34.992188 23.039062 37 21.410156 37 20 C 37 18.589844 34.992188 16.960938 31.84375 15.789062 C 31.425781 17.160156 30.894531 18.574219 30.265625 20 Z M 8.816406 25.5 L 8.320312 25.328125 C 4.363281 23.96875 2 21.976562 2 20 C 2 18.023438 4.363281 16.03125 8.320312 14.671875 L 8.816406 14.5 L 8.964844 15.003906 C 9.410156 16.558594 10.007812 18.171875 10.734375 19.796875 L 10.828125 20 L 10.734375 20.203125 C 10.007812 21.828125 9.414062 23.441406 8.964844 24.996094 Z M 8.15625 15.789062 C 5.007812 16.960938 3 18.589844 3 20 C 3 21.410156 5.007812 23.039062 8.15625 24.210938 C 8.574219 22.835938 9.105469 21.421875 9.734375 20 C 9.105469 18.578125 8.574219 17.164062 8.15625 15.789062 Z M 11.378906 18.808594 L 10.976562 17.792969 C 10.570312 16.765625 10.214844 15.730469 9.921875 14.710938 L 9.777344 14.21875 L 10.273438 14.089844 C 11.289062 13.824219 12.378906 13.601562 13.515625 13.425781 L 14.621094 13.253906 L 14.011719 14.191406 C 13.640625 14.765625 13.273438 15.351562 12.917969 15.957031 C 12.550781 16.582031 12.210938 17.210938 11.882812 17.839844 Z M 11.027344 14.929688 C 11.179688 15.417969 11.34375 15.910156 11.519531 16.398438 C 11.691406 16.085938 11.871094 15.769531 12.054688 15.453125 C 12.222656 15.164062 12.394531 14.882812 12.566406 14.601562 C 12.039062 14.699219 11.523438 14.8125 11.027344 14.929688 Z M 28.621094 18.808594 L 28.113281 17.839844 C 27.785156 17.210938 27.445312 16.582031 27.078125 15.957031 C 26.726562 15.351562 26.355469 14.765625 25.984375 14.191406 L 25.378906 13.253906 L 26.480469 13.425781 C 27.617188 13.601562 28.710938 13.824219 29.722656 14.089844 L 30.222656 14.21875 L 30.078125 14.714844 C 29.78125 15.734375 29.425781 16.769531 29.019531 17.792969 Z M 27.429688 14.601562 C 27.601562 14.882812 27.773438 15.164062 27.941406 15.453125 C 28.128906 15.769531 28.304688 16.085938 28.480469 16.402344 C 28.65625 15.910156 28.820312 15.417969 28.96875 14.929688 C 28.472656 14.8125 27.957031 14.699219 27.429688 14.601562 Z M 30.464844 13.257812 L 29.957031 13.125 C 28.371094 12.710938 26.644531 12.398438 24.820312 12.199219 L 24.601562 12.175781 L 24.472656 12 C 23.402344 10.550781 22.261719 9.210938 21.078125 8.011719 L 20.703125 7.632812 L 21.105469 7.285156 C 24.335938 4.472656 27.347656 3.363281 29.132812 4.382812 C 29.886719 4.8125 30.421875 5.601562 30.722656 6.722656 C 31.132812 8.246094 31.078125 10.332031 30.570312 12.742188 Z M 25.148438 11.230469 C 26.742188 11.410156 28.269531 11.679688 29.695312 12.027344 C 30.214844 10.121094 30.285156 8.433594 29.757812 6.980469 C 29.457031 6.148438 29.15625 5.542969 28.640625 5.25 C 27.34375 4.511719 24.828125 5.484375 22.167969 7.695312 C 23.199219 8.773438 24.199219 9.960938 25.148438 11.230469 Z M 9.535156 13.257812 L 9.425781 12.742188 C 8.917969 10.332031 8.863281 8.25 9.273438 6.722656 C 9.574219 5.597656 10.109375 4.8125 10.863281 4.382812 C 12.652344 3.359375 15.664062 4.472656 18.894531 7.285156 L 19.296875 7.636719 L 18.921875 8.015625 C 17.738281 9.210938 16.597656 10.554688 15.527344 12 L 15.394531 12.175781 L 15.179688 12.199219 C 13.359375 12.398438 11.632812 12.710938 10.039062 13.125 Z M 12.398438 5 C 12 5 11.648438 5.082031 11.359375 5.25 C 10.84375 5.542969 10.585938 6.164062 10.238281 6.980469 C 9.699219 8.253906 9.789062 9.992188 10.304688 12.027344 C 11.730469 11.679688 13.257812 11.410156 14.851562 11.230469 C 15.796875 9.960938 16.800781 8.777344 17.835938 7.695312 C 15.765625 5.976562 13.804688 5 12.398438 5 Z M 16.710938 12.039062 L 17.40625 11.171875 C 18.117188 10.292969 18.871094 9.449219 19.644531 8.664062 L 20 8.304688 L 20.355469 8.664062 C 21.132812 9.453125 21.882812 10.296875 22.589844 11.171875 L 23.289062 12.039062 L 22.179688 11.984375 C 20.746094 11.917969 19.246094 11.917969 17.820312 11.984375 Z M 20 10.933594 C 20.371094 10.933594 20.738281 10.9375 21.101562 10.945312 C 20.742188 10.53125 20.375 10.128906 20 9.734375 C 19.628906 10.125 19.257812 10.53125 18.898438 10.945312 C 19.265625 10.9375 19.628906 10.933594 20 10.933594 Z M 20 10.933594 "/>
</g>
</svg>
