<?xml version="1.0" encoding="UTF-8"?>
<svg xmlns="http://www.w3.org/2000/svg" xmlns:xlink="http://www.w3.org/1999/xlink" width="50pt" height="50pt" viewBox="0 0 50 50" version="1.1">
<g id="surface7363105">
<path style=" stroke:none;fill-rule:nonzero;fill:rgb(16.078432%,50.196081%,72.549021%);fill-opacity:1;" d="M 9 4 C 6.25 4 4 6.25 4 9 L 4 41 C 4 43.75 6.25 46 9 46 L 41 46 C 43.75 46 46 43.75 46 41 L 46 9 C 46 6.25 43.75 4 41 4 Z M 9 6 L 15.582031 6 C 12.007812 9.714844 10 14.519531 10 19.5 C 10 24.660156 12.109375 29.601562 15.910156 33.339844 C 16.03125 33.550781 16.128906 34.578125 15.671875 35.769531 C 15.378906 36.519531 14.800781 37.5 13.679688 37.867188 C 13.25 38.007812 12.96875 38.429688 13 38.878906 C 13.03125 39.332031 13.359375 39.710938 13.800781 39.800781 C 16.671875 40.371094 18.53125 39.511719 20.03125 38.828125 C 21.378906 38.210938 22.269531 37.789062 23.640625 38.347656 C 26.441406 39.441406 29.421875 40 32.5 40 C 36.59375 40 40.53125 39 44 37.113281 L 44 41 C 44 42.667969 42.667969 44 41 44 L 9 44 C 7.332031 44 6 42.667969 6 41 L 6 9 C 6 7.332031 7.332031 6 9 6 Z M 33 15 C 33.550781 15 34 15.449219 34 16 L 34 25 C 34 25.550781 33.550781 26 33 26 C 32.449219 26 32 25.550781 32 25 L 32 16 C 32 15.449219 32.449219 15 33 15 Z M 18 16 L 23 16 C 23.359375 16 23.699219 16.199219 23.878906 16.519531 C 24.050781 16.828125 24.039062 17.21875 23.847656 17.53125 L 19.800781 24 L 23 24 C 23.550781 24 24 24.449219 24 25 C 24 25.550781 23.550781 26 23 26 L 18 26 C 17.640625 26 17.300781 25.800781 17.117188 25.480469 C 16.949219 25.171875 16.960938 24.78125 17.148438 24.472656 L 21.199219 18 L 18 18 C 17.449219 18 17 17.550781 17 17 C 17 16.449219 17.449219 16 18 16 Z M 27.5 19 C 28.109375 19 28.679688 19.167969 29.191406 19.449219 C 29.371094 19.1875 29.648438 19 30 19 C 30.550781 19 31 19.449219 31 20 L 31 25 C 31 25.550781 30.550781 26 30 26 C 29.648438 26 29.371094 25.8125 29.191406 25.550781 C 28.679688 25.832031 28.109375 26 27.5 26 C 25.570312 26 24 24.429688 24 22.5 C 24 20.570312 25.570312 19 27.5 19 Z M 38.5 19 C 40.429688 19 42 20.570312 42 22.5 C 42 24.429688 40.429688 26 38.5 26 C 36.570312 26 35 24.429688 35 22.5 C 35 20.570312 36.570312 19 38.5 19 Z M 27.5 21 C 27.394531 21 27.296875 21.011719 27.199219 21.03125 C 27 21.070312 26.820312 21.148438 26.660156 21.253906 C 26.5 21.363281 26.363281 21.5 26.257812 21.660156 C 26.148438 21.820312 26.070312 22 26.03125 22.195312 C 26.011719 22.296875 26 22.394531 26 22.5 C 26 22.605469 26.011719 22.703125 26.03125 22.800781 C 26.050781 22.902344 26.078125 22.996094 26.117188 23.082031 C 26.15625 23.171875 26.203125 23.261719 26.257812 23.339844 C 26.308594 23.417969 26.371094 23.492188 26.441406 23.558594 C 26.507812 23.628906 26.582031 23.691406 26.660156 23.742188 C 26.820312 23.851562 27 23.929688 27.199219 23.96875 C 27.296875 23.988281 27.394531 24 27.5 24 C 27.605469 24 27.703125 23.988281 27.804688 23.96875 C 28.488281 23.828125 29 23.226562 29 22.5 C 29 21.671875 28.328125 21 27.5 21 Z M 38.5 21 C 38.394531 21 38.296875 21.011719 38.199219 21.03125 C 38.097656 21.050781 38.003906 21.078125 37.917969 21.117188 C 37.828125 21.15625 37.738281 21.203125 37.660156 21.257812 C 37.582031 21.308594 37.507812 21.371094 37.441406 21.441406 C 37.304688 21.574219 37.191406 21.738281 37.117188 21.917969 C 37.078125 22.003906 37.050781 22.097656 37.03125 22.199219 C 37.011719 22.296875 37 22.394531 37 22.5 C 37 22.605469 37.011719 22.703125 37.03125 22.800781 C 37.050781 22.902344 37.078125 22.996094 37.117188 23.082031 C 37.15625 23.171875 37.203125 23.261719 37.257812 23.339844 C 37.308594 23.417969 37.371094 23.492188 37.441406 23.558594 C 37.507812 23.628906 37.582031 23.691406 37.660156 23.742188 C 37.738281 23.796875 37.828125 23.84375 37.917969 23.882812 C 38.003906 23.921875 38.097656 23.949219 38.199219 23.96875 C 38.296875 23.988281 38.394531 24 38.5 24 C 38.605469 24 38.703125 23.988281 38.800781 23.96875 C 39.488281 23.828125 40 23.226562 40 22.5 C 40 21.671875 39.328125 21 38.5 21 Z M 38.5 21 "/>
</g>
</svg>
